<svg width="197" height="74" viewBox="0 0 197 74" fill="none" xmlns="http://www.w3.org/2000/svg">
<path d="M53.3618 33.0571C53.9301 31.3868 58.0491 33.8465 56.6065 34.9729C52.9441 37.8562 50.5203 43.6518 49.5779 47.5027C49.2039 49.0382 49.9034 49.5388 50.1657 49.4473C53.4395 49.7891 58.6175 44.422 63.3922 39.0885C64.3831 38.8334 64.4706 40.2727 63.5865 40.5085C60.303 44.9611 54.1924 52.0659 48.9513 51.4594C47.1735 51.3006 46.7267 50.5737 46.6052 49.1778C46.1924 44.5664 52.5361 35.4206 53.3569 33.0571H53.3618ZM53.6144 29.2592C53.2598 29.0426 52.4681 28.4312 52.8809 27.9162C54.139 26.4144 56.4948 25.9234 58.326 25.3698C58.9526 25.1869 60.8616 26.1833 59.9241 26.6598C58.3697 27.43 57.1845 28.7538 55.5913 29.4373C54.9016 29.7357 54.1876 29.5624 53.6144 29.2592Z" fill="white"/>
<path d="M86.0322 40.7351C85.8817 41.4042 78.2071 52.0519 72.762 49.0049C67.6277 46.136 74.3795 38.7375 76.813 33.5388C74.4766 35.652 71.3096 39.06 70.6782 39.7339C67.6326 42.9879 64.7959 46.367 61.8426 49.6884C61.1772 50.4489 58.8748 49.7895 59.0837 48.8316C60.5311 42.5354 64.4607 36.143 68.8324 30.7903C69.595 29.8516 71.7322 31.7337 71.1347 32.759C69.357 35.7531 67.2926 38.5738 65.5245 41.4764C67.0837 39.7483 76.6236 29.3703 79.6594 30.2656C80.0286 30.3715 81.204 30.9106 81.2332 31.7771C81.2963 34.5497 76.7887 40.2393 75.1858 44.1383C74.2095 46.5018 75.2198 48.5283 78.2119 46.6751C81.3935 44.7063 85.6388 39.9987 85.2891 40.403C85.8088 39.8205 86.484 40.1238 86.0371 40.7255L86.0322 40.7351Z" fill="white"/>
<path d="M116.033 13.7208C112.317 19.3334 92.3093 48.7156 99.571 48.6578C103.365 48.6145 107.44 42.7756 108.557 41.1438C109.038 40.4506 110.403 40.2581 109.99 40.9705C108.057 44.4315 104.764 49.6398 99.8187 50.4725C96.8558 50.9731 94.9808 49.4424 94.9565 47.1993C94.9225 45.4905 95.3257 43.7094 95.962 41.9092C92.6639 46.0488 84.5424 53.9335 81.9146 48.1283C79.4956 42.7178 88.3943 32.1905 94.6554 30.6742C96.9675 30.1159 99.2553 30.9101 100.232 32.7633C100.295 32.8981 100.353 33.0281 100.387 33.1629C101.257 31.7332 102.116 30.371 102.869 29.0954C106.4 23.1073 110.252 17.2299 114.483 11.5451C115.081 10.7412 116.581 12.8736 116.033 13.7256V13.7208ZM97.8467 34.6069C97.8467 33.5431 97.4144 33.081 96.7926 32.9751C95.656 32.7682 93.8879 33.8753 93.1447 34.3711C88.9334 37.1918 82.5411 46.121 85.0378 47.2907C85.5187 47.5074 86.4222 47.3389 87.8648 46.6602C91.4155 44.9754 95.4131 39.5842 95.792 39.1606C96.0397 38.8477 96.132 38.7226 96.6178 38.0102C97.1035 37.2977 97.8467 35.4878 97.8467 34.6118V34.6069Z" fill="white"/>
<path d="M107.238 49.2272C106.976 49.4967 106.534 49.5256 106 49.4679C105.218 49.3812 104.358 49.0539 103.896 48.6688C103.479 48.3174 103.498 48.1008 104.037 47.1718C104.606 46.1898 105.786 44.404 106.923 42.7914C107.146 42.4785 107.335 42.1993 107.35 42.1705C107.369 42.132 107.287 42.0742 107.034 41.9442C106.568 41.7035 106.31 41.5206 106.024 41.227C105.742 40.9382 105.611 40.6927 105.611 40.4616C105.611 40.3172 105.626 40.2884 105.766 40.1873C105.98 40.0332 106.422 39.9177 108.069 39.6C108.812 39.4556 109.439 39.3304 109.458 39.3112C109.477 39.2968 109.832 38.8491 110.245 38.3196C113.684 33.9104 118.881 28.0089 121.917 25.0726C123.476 23.566 123.991 23.1953 124.54 23.1953C125.512 23.1953 126.979 24.0136 127.309 24.7357C127.474 25.0967 127.367 25.8717 126.949 27.3302C126.605 28.5384 125.686 31.2821 124.54 34.5361C122.665 39.8599 121.431 43.9467 120.727 47.1477C120.533 48.0238 120.523 48.1345 120.601 48.2741C120.917 48.8469 119.994 49.0539 118.842 48.6688C118.192 48.4522 117.536 48.0382 117.293 47.7013C117.138 47.4798 117.118 47.2729 117.201 46.7482C117.337 45.9299 117.992 43.2968 118.507 41.5062C118.658 40.9911 118.779 40.5579 118.779 40.5483C118.779 40.5387 118.604 40.5338 118.386 40.5483C117.303 40.606 114.981 40.9045 112.999 41.2366L112.236 41.3666L111.804 41.9394C110.376 43.8408 108.608 46.4112 107.739 47.8457L107.263 48.6351C107.413 48.9528 107.326 49.1213 107.219 49.232L107.238 49.2272ZM122.748 29.0198C122.748 29.0198 121.776 30.0499 120.382 31.5854C119.168 32.9236 116.807 35.6577 115.651 37.0633C114.539 38.4207 114.437 38.5458 114.461 38.5699C114.476 38.5795 114.685 38.5699 114.927 38.5362C116.147 38.4014 117.371 38.3629 117.866 38.4496C118.26 38.517 118.706 38.6373 119.012 38.7673C119.255 38.8635 119.304 38.878 119.328 38.8347C119.343 38.8106 119.498 38.3533 119.668 37.8238C120.246 36.0331 120.693 34.7479 121.533 32.4374C122.155 30.743 122.762 29.0342 122.743 29.0246L122.748 29.0198Z" fill="white"/>
<path d="M173.051 41.4482C174.44 43.6192 176.315 46.9598 173.58 48.9719C171.171 50.9262 163.336 52.3703 163.992 48.091C164.196 47.3064 164.973 47.0513 165.911 47.1764C167.504 47.4267 170.768 47.239 171.501 45.8527C171.871 45.1306 171.093 44.2161 170.724 43.5855C167.62 38.9885 168.48 34.2664 175.907 33.2892C177.782 32.9426 181.294 32.0617 182.843 33.2892C184.514 34.4541 183.621 36.471 181.333 36.4999C177.826 36.6876 169.578 37.4433 173.051 41.4434V41.4482Z" fill="white"/>
<path d="M1.25565 20.2251C4.94724 13.6016 14.5648 10.2899 21.9237 7.66164C39.1673 1.49543 59.505 -1.70079 78.0893 0.922618C78.9004 1.03814 80.3285 2.53998 78.8567 2.50147C66.5579 2.10195 54.6963 2.38595 42.8783 4.47986C42.9463 4.65315 42.9463 4.82162 42.854 4.97566C38.327 12.1912 33.5182 19.272 29.0397 26.4827C29.9189 26.1795 30.7738 25.8714 31.5898 25.5874C37.8509 23.4165 44.8553 21.2648 51.6653 21.2311C52.2141 21.2311 54.2785 22.5067 53.1613 22.8677C46.9002 24.8461 40.2019 25.6837 33.9213 27.7198C31.4635 28.5382 29.0446 29.4335 26.6742 30.4058C20.6122 40.4951 15.4051 50.9261 12.6801 62.2862C12.4373 63.297 10.3098 61.9637 10.3972 61.1839C11.2764 51.3064 15.8229 42.0739 20.6996 33.1833C19.0093 34.0208 17.3189 34.8584 15.5168 35.4312C14.9437 35.6237 13.2776 34.7284 13.8896 34.1556C16.2843 31.9462 19.665 30.1796 23.1817 28.7114C27.7525 20.5861 32.8479 12.326 39.2839 5.18745C36.7338 5.72176 34.1885 6.34753 31.6384 7.06957C24.5224 9.08646 17.1635 11.5991 10.8829 15.1756C5.12696 18.4681 -2.71281 28.0424 6.04985 32.7452C6.88532 33.2025 6.99704 34.3626 5.78756 33.7898C0.250174 31.123 -1.44018 25.0724 1.26536 20.2203L1.25565 20.2251Z" fill="white"/>
<path d="M194.972 11.3634C191.717 11.0938 183.285 12.1577 179.117 12.6438C178.243 12.7449 175.751 13.2359 174.109 13.5632C173.789 13.6595 173.313 13.7509 172.584 13.8713C167.683 14.7474 160.873 15.7245 155.758 16.8509C152.596 17.1108 152.373 19.2144 154.826 20.3504C156.176 20.9087 157.376 20.3022 158.658 19.9557C162.452 18.8774 169.684 17.3708 170.913 17.366C165.667 23.3155 145.402 51.4317 157.92 52.5966C158.6 52.6592 158.755 52.2163 158.498 51.7109C153.364 42.979 170.457 24.62 177.398 17.2937C179.088 15.5031 186.063 14.2804 191.256 14.1745C193.855 14.1216 196.516 14.9688 196.939 13.6451C197.158 13.0578 196.915 11.5223 194.982 11.3634H194.972Z" fill="white"/>
<path d="M153.964 25.8808C153.765 25.1058 153.119 24.4078 152.007 23.7628C150.744 23.0311 149.5 22.7086 147.592 22.622C146.824 22.5883 145.362 22.6846 144.575 22.8242C142.958 23.1082 141.063 23.6617 139.232 24.3789C138.96 24.4848 138.722 24.5811 138.698 24.5907C138.673 24.6004 138.586 24.5234 138.503 24.4175C138.411 24.3019 138.246 24.1623 138.071 24.0516C137.731 23.8398 137.658 23.8013 137.265 23.6617C136.415 23.3537 135.55 23.3103 135.254 23.5655C135.074 23.7195 134.661 24.456 133.466 26.7569L132.854 27.9314L132.427 28.3068C131.514 29.1011 131.057 29.645 130.717 30.3333C130.44 30.8917 130.353 31.2431 130.382 31.6908C130.406 32.0422 130.411 32.0662 130.62 32.3743C130.673 32.461 130.659 32.5139 130.319 33.2696C129.153 35.8449 128.021 38.5983 127.215 40.827C127.142 41.0339 127.079 41.1976 127.026 41.342C126.705 42.2422 126.375 43.2001 126.195 43.7296C126.19 43.7488 126.185 43.7632 126.175 43.7825C125.384 46.1219 125 47.4842 125 47.9559C125 48.2977 125.214 48.5239 125.753 48.7646C126.661 49.1641 127.88 49.2892 128.463 49.0438C128.653 48.9667 128.857 48.7646 129.095 48.4228C129.313 48.1147 129.318 47.9751 129.308 47.8933C129.299 47.8018 129.202 47.6189 129.032 47.4938L128.891 47.3927L128.954 47.1424C129.041 46.8103 129.328 45.8957 129.716 44.75L130.032 43.8066L130.411 43.6381C130.902 43.4167 132.553 42.5743 133.729 41.9485C134.598 41.4864 134.661 41.4575 134.715 41.5105C134.749 41.5394 135.035 41.8667 135.351 42.2373C138.095 45.4384 140.422 47.3975 142.962 48.649C144.959 49.631 146.829 50.2712 147.956 50.3531C148.971 50.4253 150.268 49.9583 151.026 49.2556C151.346 48.9571 151.497 48.6924 151.477 48.3747C151.463 48.1532 151.429 48.1292 151.322 48.0473C151.069 47.8548 150.472 47.8981 149.787 48.1677C149.598 48.2399 149.428 48.3025 149.403 48.3025C149.253 48.3121 147.917 47.8452 147.101 47.489C145.857 46.9547 145.012 46.507 144.07 45.8909C143.351 45.4191 142.962 45.1303 142.258 44.5334C141.092 43.5515 140.422 42.892 138.79 41.1062C138.183 40.4419 137.668 39.8835 137.649 39.8691C137.619 39.845 137.828 39.7054 138.348 39.407C140.233 38.3191 142.661 36.8317 144.099 35.8882C145.411 35.0266 147.626 33.4429 148.884 32.4706C150.312 31.3683 151.866 29.9868 152.575 29.1877C153.746 27.8688 154.198 26.8002 153.964 25.9V25.8808ZM139.174 27.4163C141.452 26.2514 144.279 25.2839 146.649 24.8699C148.029 24.6293 149.593 24.5811 150.555 24.7544L150.895 24.817L150.904 24.9758C150.919 25.2502 150.836 25.5631 150.647 25.9434C150.244 26.7376 149.729 27.3441 148.505 28.4801C147.043 29.8424 145.653 30.9302 142.967 32.8316C140.471 34.5982 136.619 36.9665 132.922 39.0219C132.267 39.3877 131.674 39.715 131.606 39.7439L131.485 39.8065L131.674 39.3251C132.602 36.9809 134.117 33.5488 135.254 31.1998C135.531 30.5788 135.754 30.1408 135.944 29.8135C135.944 29.8135 136.259 29.2695 136.531 28.9759C136.74 28.7497 137.581 28.3068 138.246 27.9362C138.465 27.811 138.683 27.6907 138.916 27.5655" fill="white"/>
<path d="M96 73.0054V64.9993H96.897V65.7524C97.1076 65.4606 97.3455 65.2367 97.6105 65.0875C97.8755 64.9382 98.1949 64.8704 98.5754 64.8704C99.0715 64.8704 99.5064 64.9993 99.8869 65.2503C100.267 65.5014 100.553 65.861 100.743 66.3291C100.933 66.7905 101.035 67.2993 101.035 67.8557C101.035 68.446 100.927 68.982 100.716 69.4569C100.505 69.9319 100.193 70.2915 99.785 70.5493C99.3773 70.8003 98.9491 70.9293 98.5075 70.9293C98.1813 70.9293 97.8823 70.8614 97.6241 70.7189C97.3658 70.5832 97.1484 70.4068 96.9853 70.1965V73.0122H96V73.0054ZM96.8902 67.9236C96.8902 68.6699 97.0397 69.2195 97.3455 69.5791C97.6513 69.9387 98.0114 70.1151 98.4463 70.1151C98.8812 70.1151 99.2549 69.9319 99.5675 69.5587C99.8801 69.1856 100.036 68.6156 100.036 67.8421C100.036 67.0687 99.8869 66.553 99.5811 66.1866C99.2753 65.8202 98.9152 65.6371 98.4939 65.6371C98.0726 65.6371 97.7056 65.8338 97.3862 66.2206C97.0669 66.6141 96.9038 67.1772 96.9038 67.9236H96.8902Z" fill="white"/>
<path d="M102.203 70.7875V65H103.087V65.8752C103.311 65.4681 103.521 65.1967 103.712 65.061C103.902 64.9321 104.113 64.8643 104.344 64.8643C104.677 64.8643 105.01 64.9728 105.356 65.1831L105.016 66.0923C104.779 65.9498 104.534 65.882 104.296 65.882C104.079 65.882 103.888 65.9431 103.718 66.0788C103.549 66.2077 103.426 66.3841 103.352 66.6148C103.243 66.9608 103.188 67.3475 103.188 67.7614V70.7942H102.203V70.7875Z" fill="white"/>
<path d="M109.911 68.9216L110.923 69.0437C110.76 69.634 110.468 70.0954 110.033 70.4211C109.598 70.7467 109.048 70.9096 108.375 70.9096C107.526 70.9096 106.853 70.6518 106.357 70.1293C105.861 69.6069 105.609 68.8741 105.609 67.9378C105.609 67.0015 105.861 66.2077 106.364 65.6717C106.866 65.1357 107.519 64.8643 108.321 64.8643C109.123 64.8643 109.727 65.1289 110.223 65.6513C110.713 66.1805 110.957 66.9201 110.957 67.8767C110.957 67.9378 110.957 68.0192 110.957 68.1414H106.635C106.669 68.7791 106.853 69.2677 107.179 69.6001C107.505 69.9394 107.906 70.109 108.389 70.109C108.749 70.109 109.055 70.014 109.313 69.824C109.564 69.634 109.768 69.3355 109.918 68.9216H109.911ZM106.683 67.334H109.918C109.877 66.8454 109.748 66.4791 109.544 66.2348C109.231 65.8548 108.824 65.6649 108.327 65.6649C107.879 65.6649 107.498 65.8141 107.186 66.1195C106.873 66.4248 106.71 66.8251 106.676 67.3272L106.683 67.334Z" fill="white"/>
<path d="M111.77 69.0573L112.742 68.9013C112.796 69.288 112.946 69.5865 113.197 69.7969C113.449 70.0072 113.795 70.109 114.244 70.109C114.692 70.109 115.032 70.014 115.25 69.8308C115.467 69.6476 115.576 69.4305 115.576 69.1862C115.576 68.9623 115.481 68.7927 115.284 68.6638C115.148 68.5756 114.815 68.467 114.278 68.3313C113.558 68.1481 113.055 67.9921 112.776 67.8564C112.497 67.7207 112.287 67.5375 112.144 67.3068C112.001 67.0693 111.927 66.8115 111.927 66.5333C111.927 66.2755 111.988 66.038 112.103 65.8141C112.226 65.597 112.382 65.4138 112.586 65.2646C112.742 65.1492 112.946 65.0542 113.211 64.9796C113.476 64.905 113.761 64.8643 114.06 64.8643C114.516 64.8643 114.917 64.9321 115.256 65.061C115.603 65.1899 115.854 65.3663 116.017 65.5902C116.181 65.8141 116.296 66.1127 116.357 66.4859L115.392 66.6148C115.351 66.3162 115.222 66.0855 115.012 65.9159C114.801 65.7463 114.509 65.6649 114.122 65.6649C113.673 65.6649 113.347 65.7395 113.157 65.8888C112.966 66.038 112.864 66.2145 112.864 66.4112C112.864 66.5401 112.905 66.6555 112.987 66.7572C113.068 66.8658 113.191 66.9472 113.36 67.0219C113.456 67.0558 113.748 67.144 114.23 67.2729C114.923 67.4561 115.413 67.6121 115.684 67.7275C115.956 67.8496 116.174 68.0192 116.33 68.2431C116.486 68.467 116.561 68.7452 116.561 69.0845C116.561 69.4237 116.466 69.7222 116.276 70.0072C116.085 70.2922 115.807 70.5161 115.447 70.6789C115.086 70.8417 114.679 70.9164 114.223 70.9164C113.469 70.9164 112.898 70.7603 112.504 70.4482C112.11 70.1361 111.859 69.6747 111.75 69.0573H111.77Z" fill="white"/>
<path d="M121.721 68.9216L122.734 69.0437C122.571 69.634 122.279 70.0954 121.844 70.4211C121.409 70.7467 120.858 70.9096 120.186 70.9096C119.336 70.9096 118.663 70.6518 118.167 70.1293C117.671 69.6069 117.42 68.8741 117.42 67.9378C117.42 67.0015 117.671 66.2077 118.174 65.6717C118.677 65.1357 119.329 64.8643 120.131 64.8643C120.933 64.8643 121.538 65.1289 122.034 65.6513C122.523 66.1805 122.768 66.9201 122.768 67.8767C122.768 67.9378 122.768 68.0192 122.768 68.1414H118.446C118.48 68.7791 118.663 69.2677 118.99 69.6001C119.316 69.9394 119.717 70.109 120.199 70.109C120.559 70.109 120.865 70.014 121.123 69.824C121.375 69.634 121.579 69.3355 121.728 68.9216H121.721ZM118.494 67.334H121.728C121.687 66.8454 121.558 66.4791 121.354 66.2348C121.042 65.8548 120.634 65.6649 120.138 65.6649C119.69 65.6649 119.309 65.8141 118.996 66.1195C118.684 66.4248 118.521 66.8251 118.487 67.3272L118.494 67.334Z" fill="white"/>
<path d="M123.968 70.7875V65H124.851V65.8209C125.279 65.1831 125.891 64.8643 126.699 64.8643C127.046 64.8643 127.372 64.9253 127.664 65.0542C127.957 65.1764 128.174 65.346 128.324 65.5495C128.466 65.7531 128.568 65.9973 128.629 66.2755C128.663 66.4587 128.684 66.7776 128.684 67.2322V70.7942H127.698V67.2729C127.698 66.8726 127.658 66.5741 127.583 66.3773C127.508 66.1805 127.372 66.0177 127.175 65.9023C126.978 65.7802 126.754 65.7259 126.489 65.7259C126.067 65.7259 125.707 65.8549 125.402 66.1262C125.096 66.3976 124.946 66.8929 124.946 67.6393V70.801H123.961L123.968 70.7875Z" fill="white"/>
<path d="M132.335 69.9039L132.477 70.7723C132.199 70.8266 131.954 70.8606 131.737 70.8606C131.376 70.8606 131.105 70.8063 130.907 70.6909C130.71 70.5756 130.575 70.4331 130.493 70.2431C130.411 70.0531 130.371 69.6732 130.371 69.0829V65.7515H129.65V64.9916H130.371V63.56L131.349 62.9697V64.9916H132.341V65.7515H131.349V69.1372C131.349 69.4154 131.37 69.5986 131.404 69.68C131.438 69.7614 131.492 69.8225 131.573 69.87C131.648 69.9174 131.764 69.9378 131.906 69.9378C132.015 69.9378 132.158 69.9242 132.341 69.8971L132.335 69.9039Z" fill="white"/>
<path d="M137.268 68.9216L138.281 69.0437C138.118 69.634 137.825 70.0954 137.391 70.4211C136.956 70.7467 136.405 70.9096 135.732 70.9096C134.883 70.9096 134.21 70.6518 133.714 70.1293C133.218 69.6069 132.967 68.8741 132.967 67.9378C132.967 67.0015 133.218 66.2077 133.721 65.6717C134.224 65.1357 134.876 64.8643 135.678 64.8643C136.48 64.8643 137.085 65.1289 137.581 65.6513C138.07 66.1805 138.315 66.9201 138.315 67.8767C138.315 67.9378 138.315 68.0192 138.315 68.1414H133.993C134.027 68.7791 134.21 69.2677 134.537 69.6001C134.863 69.9394 135.264 70.109 135.746 70.109C136.106 70.109 136.412 70.014 136.67 69.824C136.922 69.634 137.126 69.3355 137.275 68.9216H137.268ZM134.04 67.334H137.275C137.234 66.8454 137.105 66.4791 136.901 66.2348C136.589 65.8548 136.181 65.6649 135.685 65.6649C135.236 65.6649 134.856 65.8141 134.543 66.1195C134.231 66.4248 134.068 66.8251 134.034 67.3272L134.04 67.334Z" fill="white"/>
<path d="M143.283 70.787V70.0543C142.916 70.631 142.372 70.9159 141.659 70.9159C141.197 70.9159 140.769 70.787 140.381 70.536C139.994 70.2849 139.695 69.9254 139.478 69.4708C139.267 69.0162 139.158 68.4869 139.158 67.8967C139.158 67.3064 139.253 66.7975 139.45 66.3226C139.647 65.8476 139.933 65.488 140.32 65.2438C140.708 64.9927 141.136 64.8706 141.611 64.8706C141.958 64.8706 142.27 64.9452 142.542 65.0877C142.814 65.2302 143.038 65.427 143.208 65.6644V62.7944H144.187V70.787H143.276H143.283ZM140.177 67.8967C140.177 68.6362 140.334 69.1926 140.646 69.559C140.959 69.9254 141.326 70.1085 141.754 70.1085C142.182 70.1085 142.549 69.9321 142.848 69.5793C143.147 69.2265 143.297 68.6905 143.297 67.9713C143.297 67.1775 143.147 66.594 142.834 66.2276C142.529 65.8544 142.155 65.6712 141.706 65.6712C141.258 65.6712 140.905 65.8476 140.612 66.2072C140.32 66.5668 140.171 67.1232 140.171 67.8899L140.177 67.8967Z" fill="white"/>
<path d="M149.752 70.787H148.842V62.7944H149.827V65.6441C150.242 65.1217 150.772 64.8638 151.417 64.8638C151.777 64.8638 152.11 64.9317 152.43 65.0809C152.749 65.2302 153.007 65.427 153.218 65.6848C153.422 65.9426 153.585 66.2615 153.7 66.6279C153.816 66.9943 153.877 67.3878 153.877 67.8017C153.877 68.7923 153.632 69.559 153.143 70.1018C152.654 70.6445 152.063 70.9159 151.376 70.9159C150.69 70.9159 150.153 70.631 149.766 70.061V70.787H149.752ZM149.739 67.8492C149.739 68.5412 149.834 69.0433 150.024 69.3554C150.337 69.8575 150.751 70.1153 151.281 70.1153C151.709 70.1153 152.083 69.9321 152.396 69.559C152.708 69.1858 152.865 68.6294 152.865 67.8899C152.865 67.1503 152.715 66.5736 152.416 66.214C152.117 65.8544 151.75 65.6712 151.329 65.6712C150.908 65.6712 150.527 65.8544 150.214 66.2276C149.902 66.6008 149.746 67.1368 149.746 67.8424L149.739 67.8492Z" fill="white"/>
<path d="M155.016 73.0122L154.908 72.0894C155.125 72.1505 155.309 72.1776 155.472 72.1776C155.689 72.1776 155.866 72.1437 155.995 72.0691C156.124 71.9944 156.233 71.8927 156.314 71.7637C156.376 71.6688 156.477 71.4245 156.613 71.031C156.634 70.9767 156.661 70.8953 156.702 70.7935L154.5 64.9924H155.56L156.77 68.3442C156.926 68.7716 157.069 69.2194 157.191 69.6876C157.306 69.2398 157.436 68.7988 157.592 68.3713L158.829 64.9992H159.814L157.605 70.8885C157.368 71.5263 157.184 71.9605 157.055 72.2048C156.878 72.5304 156.681 72.7679 156.457 72.9172C156.233 73.0664 155.961 73.1411 155.648 73.1411C155.458 73.1411 155.247 73.1004 155.016 73.0189V73.0122Z" fill="white"/>
<path d="M175.975 71.6689C176.24 72.3135 176.505 72.9581 176.777 73.6162H176.695C175.336 73.6162 173.977 73.6162 172.618 73.6162C172.55 73.6162 172.523 73.5958 172.502 73.5348C171.789 71.3161 171.069 69.0975 170.355 66.8856C170.342 66.8381 170.335 66.8042 170.267 66.8042C170.206 66.8042 170.199 66.8449 170.185 66.8856C169.506 68.9889 168.826 71.0854 168.147 73.1887C168.106 73.3177 168.065 73.4398 168.024 73.5687C168.011 73.6026 167.997 73.623 167.956 73.623C166.577 73.623 165.191 73.623 163.811 73.623C163.805 73.623 163.791 73.623 163.777 73.623C163.784 73.5958 163.791 73.5755 163.798 73.5551C165.306 69.8777 166.822 66.2071 168.33 62.5297C168.357 62.4618 168.391 62.4415 168.466 62.4415C169.669 62.4415 170.872 62.4415 172.074 62.4415C172.149 62.4415 172.183 62.4618 172.21 62.5297C173.019 64.5041 173.834 66.4785 174.65 68.4529C174.663 68.4868 174.663 68.5207 174.718 68.5072C174.765 68.4936 174.765 68.4665 174.765 68.4258C174.765 66.4649 174.758 64.5041 174.752 62.5365C174.752 62.4686 174.788 62.4347 174.86 62.4347C176.056 62.4347 177.252 62.4347 178.442 62.4347C178.509 62.4347 178.543 62.4686 178.543 62.5365C178.543 64.5312 178.543 66.5192 178.543 68.514C178.543 68.8871 178.584 69.2603 178.727 69.6131C178.897 70.0473 179.23 70.2848 179.685 70.3594C179.977 70.4069 180.269 70.4069 180.555 70.3391C181.024 70.2373 181.309 69.9388 181.459 69.491C181.54 69.2399 181.588 68.9821 181.595 68.7175C181.608 68.324 181.608 67.9305 181.608 67.5369C181.608 65.8679 181.608 64.192 181.608 62.5229C181.608 62.4596 181.64 62.4279 181.703 62.4279C182.92 62.4279 184.136 62.4279 185.352 62.4279C185.416 62.4279 185.447 62.4573 185.447 62.5161C185.447 63.5271 185.447 64.538 185.447 65.549C185.447 65.6168 185.475 65.644 185.529 65.6236C185.549 65.6168 185.563 65.5829 185.57 65.5557C185.678 65.2301 185.814 64.9112 185.984 64.6126C186.474 63.7442 187.18 63.0996 188.07 62.6586C188.648 62.3736 189.253 62.1972 189.885 62.0955C190.422 62.0073 190.958 61.9869 191.502 62.0073C192.494 62.048 193.445 62.2583 194.329 62.7332C195.518 63.371 196.299 64.3413 196.707 65.6168C196.823 65.9832 196.897 66.3564 196.945 66.7363C196.999 67.1841 197.013 67.6251 196.993 68.0729C196.952 68.9278 196.782 69.7556 196.401 70.5291C195.899 71.5468 195.117 72.2864 194.091 72.7749C193.541 73.0395 192.956 73.2023 192.358 73.2973C191.855 73.3787 191.346 73.4059 190.836 73.3855C189.919 73.3516 189.029 73.182 188.193 72.7884C186.834 72.1507 185.95 71.099 185.522 69.6674C185.495 69.5656 185.468 69.4638 185.441 69.3553C185.434 69.3214 185.42 69.301 185.373 69.301C185.325 69.301 185.325 69.3281 185.325 69.3621C185.237 69.8302 185.101 70.2916 184.87 70.7123C184.483 71.4315 183.885 71.9132 183.13 72.2117C182.702 72.3813 182.26 72.4831 181.812 72.551C181.397 72.612 180.983 72.6527 180.568 72.6527C180.174 72.6527 179.787 72.6663 179.393 72.6527C178.707 72.6256 178.027 72.5374 177.368 72.3271C176.899 72.1778 176.464 71.9675 176.084 71.6554C176.036 71.6147 176.036 71.6146 175.968 71.6621L175.975 71.6689ZM189.178 67.7201C189.178 68.0662 189.192 68.4325 189.246 68.7921C189.3 69.1789 189.382 69.552 189.538 69.9116C189.667 70.217 189.844 70.4951 190.109 70.7055C190.449 70.9837 190.85 71.0719 191.278 71.0447C191.719 71.0176 192.093 70.8412 192.379 70.5019C192.616 70.2305 192.759 69.9049 192.868 69.5588C193.038 68.9957 193.092 68.4122 193.099 67.8219C193.106 67.4012 193.085 66.9806 193.024 66.5667C192.97 66.1867 192.888 65.8204 192.732 65.4675C192.596 65.1487 192.406 64.8637 192.127 64.6534C191.781 64.3955 191.387 64.3141 190.965 64.3548C190.456 64.3955 190.068 64.6398 189.776 65.0537C189.559 65.3726 189.429 65.7254 189.341 66.0985C189.219 66.6278 189.178 67.1638 189.185 67.7201H189.178Z" fill="white"/>
</svg>
