<svg width="32" height="32" viewBox="0 0 32 32" fill="none" xmlns="http://www.w3.org/2000/svg">
<path d="M29.7211 10.3155C29.7211 10.3155 29.4477 8.3549 28.6055 7.49403C27.5391 6.36101 26.3469 6.35546 25.8 6.28881C21.8844 6 16.0055 6 16.0055 6H15.9945C15.9945 6 10.1156 6 6.2 6.28881C5.65313 6.35546 4.46094 6.36101 3.39453 7.49403C2.55234 8.3549 2.28437 10.3155 2.28437 10.3155C2.28437 10.3155 2 12.6204 2 14.9197V17.0747C2 19.3741 2.27891 21.679 2.27891 21.679C2.27891 21.679 2.55234 23.6395 3.38906 24.5004C4.45547 25.6334 5.85547 25.5946 6.47891 25.7167C8.72109 25.9334 16 26 16 26C16 26 21.8844 25.9889 25.8 25.7056C26.3469 25.639 27.5391 25.6334 28.6055 24.5004C29.4477 23.6395 29.7211 21.679 29.7211 21.679C29.7211 21.679 30 19.3796 30 17.0747V14.9197C30 12.6204 29.7211 10.3155 29.7211 10.3155ZM13.107 19.6906V11.6984L20.6703 15.7084L13.107 19.6906Z" fill="white"/>
</svg>
