<svg width="165" height="54" viewBox="0 0 165 54" fill="none" xmlns="http://www.w3.org/2000/svg">
<path d="M44.9838 28.4624C45.4562 27.0531 48.8801 29.1285 47.6809 30.0789C44.6366 32.5117 42.6219 37.4018 41.8386 40.651C41.5277 41.9466 42.1091 42.369 42.3271 42.2918C45.0484 42.5802 49.3524 38.0516 53.3214 33.5515C54.145 33.3362 54.2177 34.5506 53.4829 34.7496C50.7535 38.5065 45.6742 44.5013 41.3177 43.9895C39.84 43.8555 39.4685 43.2422 39.3676 42.0644C39.0244 38.1735 44.2974 30.4566 44.9798 28.4624H44.9838ZM45.1938 25.2579C44.899 25.0751 44.2409 24.5593 44.5841 24.1247C45.6298 22.8576 47.588 22.4433 49.1102 21.9762C49.631 21.8219 51.2178 22.6626 50.4385 23.0647C49.1465 23.7145 48.1614 24.8314 46.8371 25.4082C46.2637 25.66 45.6702 25.5138 45.1938 25.2579Z" fill="#D8D1C1"/>
<path d="M72.1399 34.9404C72.0147 35.505 65.6354 44.489 61.1093 41.9181C56.8416 39.4974 62.4538 33.2549 64.4767 28.8685C62.5346 30.6515 59.9021 33.527 59.3772 34.0956C56.8457 36.8412 54.4878 39.6924 52.0329 42.4948C51.4798 43.1365 49.566 42.5801 49.7396 41.7719C50.9428 36.4594 54.2092 31.0658 57.843 26.5494C58.4769 25.7574 60.2534 27.3454 59.7568 28.2105C58.279 30.7368 56.5631 33.1168 55.0934 35.5659C56.3894 34.1078 64.3192 25.3512 66.8426 26.1067C67.1495 26.196 68.1266 26.6509 68.1508 27.382C68.2033 29.7214 64.4565 34.5221 63.1241 37.8119C62.3125 39.8061 63.1523 41.516 65.6395 39.9523C68.2841 38.2912 71.8129 34.319 71.5222 34.6602C71.9542 34.1687 72.5154 34.4246 72.1439 34.9323L72.1399 34.9404Z" fill="#D8D1C1"/>
<path d="M97.0767 12.1475C93.988 16.8832 77.3573 41.6746 83.3935 41.6259C86.5468 41.5893 89.9343 36.6627 90.8629 35.2859C91.2627 34.701 92.3972 34.5386 92.054 35.1397C90.4471 38.0599 87.7096 42.4544 83.5994 43.1571C81.1365 43.5795 79.578 42.2879 79.5578 40.3953C79.5295 38.9534 79.8647 37.4507 80.3936 35.9317C77.6521 39.4246 70.9013 46.0773 68.717 41.1791C66.7063 36.614 74.1031 27.7315 79.3075 26.4521C81.2294 25.981 83.131 26.6511 83.9426 28.2148C83.9951 28.3285 84.0435 28.4382 84.0718 28.5519C84.7945 27.3456 85.5092 26.1962 86.135 25.1199C89.0703 20.0674 92.272 15.1083 95.7887 10.3117C96.2854 9.63344 97.533 11.4327 97.0767 12.1516V12.1475ZM81.9601 29.7704C81.9601 28.8728 81.6008 28.4829 81.084 28.3935C80.1392 28.2189 78.6695 29.153 78.0518 29.5714C74.5513 31.9514 69.2378 39.4855 71.3131 40.4724C71.7129 40.6552 72.4638 40.513 73.663 39.9404C76.6144 38.5188 79.9373 33.97 80.2523 33.6125C80.4582 33.3485 80.5349 33.243 80.9386 32.6418C81.3424 32.0407 81.9601 30.5136 81.9601 29.7744V29.7704Z" fill="#D8D1C1"/>
<path d="M89.7677 42.1047C89.5497 42.3322 89.1823 42.3566 88.7381 42.3078C88.0881 42.2347 87.3734 41.9585 86.9899 41.6336C86.6426 41.3371 86.6588 41.1544 87.107 40.3705C87.5794 39.5419 88.5605 38.0351 89.5053 36.6745C89.691 36.4105 89.8485 36.175 89.8606 36.1506C89.8767 36.1181 89.8081 36.0694 89.5981 35.9597C89.2105 35.7566 88.9965 35.6023 88.7583 35.3545C88.5241 35.1108 88.4151 34.9037 88.4151 34.7087C88.4151 34.5869 88.4272 34.5625 88.5443 34.4772C88.722 34.3473 89.0894 34.2498 90.4581 33.9817C91.0759 33.8599 91.5967 33.7543 91.6129 33.738C91.629 33.7259 91.9238 33.3481 92.2669 32.9014C95.1255 29.181 99.4457 24.2016 101.969 21.7241C103.265 20.4529 103.693 20.1401 104.149 20.1401C104.957 20.1401 106.176 20.8306 106.451 21.4398C106.588 21.7444 106.499 22.3983 106.152 23.629C105.865 24.6484 105.102 26.9635 104.149 29.709C102.591 34.2011 101.565 37.6493 100.98 40.3502C100.818 41.0894 100.81 41.1828 100.875 41.3006C101.137 41.7839 100.37 41.9585 99.4134 41.6336C98.8724 41.4508 98.3273 41.1016 98.1254 40.8172C97.9962 40.6304 97.9801 40.4558 98.0487 40.0131C98.1618 39.3226 98.7068 37.101 99.1348 35.5901C99.26 35.1555 99.3609 34.79 99.3609 34.7819C99.3609 34.7737 99.2156 34.7697 99.0339 34.7819C98.1335 34.8306 96.2036 35.0824 94.5562 35.3627L93.9223 35.4723L93.563 35.9556C92.376 37.5599 90.9063 39.7288 90.1836 40.9391L89.7879 41.6052C89.9131 41.8732 89.8404 42.0154 89.7516 42.1088L89.7677 42.1047ZM102.66 25.0546C102.66 25.0546 101.852 25.9237 100.693 27.2193C99.6839 28.3484 97.7217 30.6554 96.7607 31.8413C95.8361 32.9867 95.7513 33.0923 95.7715 33.1126C95.7836 33.1207 95.9573 33.1126 96.1591 33.0841C97.1726 32.9704 98.19 32.9379 98.6019 33.011C98.9289 33.0679 99.3004 33.1694 99.5547 33.2791C99.7566 33.3603 99.797 33.3725 99.8172 33.336C99.8293 33.3157 99.9585 32.9298 100.1 32.483C100.58 30.9722 100.952 29.8877 101.65 27.9382C102.167 26.5086 102.672 25.0667 102.656 25.0586L102.66 25.0546Z" fill="#D8D1C1"/>
<path d="M144.472 35.5417C145.627 37.3734 147.186 40.1921 144.913 41.8898C142.91 43.5388 136.397 44.7572 136.942 41.1465C137.112 40.4845 137.758 40.2693 138.537 40.3749C139.862 40.5861 142.575 40.4277 143.184 39.2579C143.491 38.6487 142.845 37.877 142.538 37.345C139.958 33.4662 140.673 29.4819 146.847 28.6574C148.405 28.365 151.324 27.6217 152.612 28.6574C154.001 29.6403 153.258 31.3421 151.356 31.3664C148.441 31.5248 141.586 32.1625 144.472 35.5376V35.5417Z" fill="#D8D1C1"/>
<path d="M1.67263 17.6344C4.74116 12.0458 12.7355 9.25149 18.8524 7.03391C33.1857 1.83112 50.0909 -0.865716 65.5385 1.3478C66.2128 1.44528 67.3998 2.71247 66.1765 2.67998C55.9534 2.34287 46.0937 2.5825 36.2704 4.34925C36.3269 4.49547 36.3269 4.63762 36.2502 4.76759C32.4872 10.8558 28.49 16.8302 24.7674 22.9144C25.4982 22.6585 26.2088 22.3986 26.8871 22.1589C32.0915 20.3272 37.9136 18.5117 43.5743 18.4833C44.0305 18.4833 45.7465 19.5596 44.8179 19.8642C39.6135 21.5335 34.0457 22.2402 28.8251 23.9582C26.7821 24.6486 24.7714 25.4041 22.8011 26.2245C17.7623 34.7374 13.434 43.5387 11.1689 53.1238C10.9671 53.9768 9.19862 52.8517 9.27129 52.1938C10.0021 43.8596 13.7812 36.0696 17.8349 28.568C16.4299 29.2747 15.0248 29.9814 13.5269 30.4647C13.0504 30.6272 11.6656 29.8717 12.1743 29.3884C14.1648 27.5242 16.9749 26.0336 19.8981 24.7949C23.6974 17.939 27.9328 10.9695 33.2826 4.94629C31.1629 5.39712 29.0472 5.92512 26.9275 6.53434C21.0125 8.23611 14.8956 10.3562 9.67505 13.3739C4.89055 16.152 -1.62605 24.2303 5.65769 28.1984C6.35215 28.5842 6.44501 29.5631 5.43966 29.0797C0.836857 26.8297 -0.568209 21.7244 1.6807 17.6304L1.67263 17.6344Z" fill="#D8D1C1"/>
<path d="M162.694 10.157C159.989 9.92953 152.98 10.8271 149.515 11.2373C148.789 11.3226 146.717 11.7369 145.353 12.0131C145.086 12.0943 144.691 12.1715 144.085 12.273C140.011 13.0122 134.35 13.8367 130.099 14.7871C127.47 15.0064 127.285 16.7813 129.324 17.7398C130.446 18.2109 131.443 17.6992 132.509 17.4068C135.663 16.497 141.674 15.2257 142.696 15.2217C138.335 20.2417 121.491 43.9649 131.896 44.9478C132.461 45.0006 132.59 44.6269 132.376 44.2005C128.108 36.8329 142.316 21.3424 148.086 15.1607C149.491 13.6499 155.289 12.6182 159.605 12.5289C161.765 12.4842 163.978 13.199 164.329 12.0821C164.511 11.5866 164.309 10.291 162.702 10.157H162.694Z" fill="#D8D1C1"/>
<path d="M128.609 22.4067C128.444 21.7528 127.907 21.1639 126.982 20.6196C125.932 20.0023 124.899 19.7302 123.312 19.6571C122.674 19.6286 121.459 19.7099 120.805 19.8276C119.46 20.0673 117.885 20.5344 116.363 21.1395C116.137 21.2289 115.939 21.3101 115.919 21.3182C115.899 21.3263 115.826 21.2614 115.758 21.172C115.681 21.0745 115.544 20.9567 115.398 20.8633C115.116 20.6846 115.055 20.6521 114.728 20.5343C114.021 20.2744 113.303 20.2379 113.056 20.4531C112.907 20.5831 112.564 21.2045 111.571 23.1459L111.062 24.1369L110.707 24.4537C109.948 25.1238 109.568 25.5828 109.285 26.1636C109.055 26.6347 108.983 26.9312 109.007 27.3089C109.027 27.6054 109.031 27.6257 109.205 27.8857C109.249 27.9588 109.237 28.0035 108.954 28.6411C107.985 30.814 107.045 33.1372 106.374 35.0177C106.314 35.1923 106.261 35.3304 106.217 35.4522C105.95 36.2118 105.676 37.02 105.526 37.4668C105.522 37.483 105.518 37.4952 105.51 37.5114C104.852 39.4853 104.533 40.6347 104.533 41.0328C104.533 41.3211 104.711 41.512 105.159 41.7151C105.914 42.0522 106.927 42.1578 107.412 41.9507C107.569 41.8857 107.739 41.7151 107.937 41.4267C108.119 41.1668 108.123 41.049 108.115 40.98C108.106 40.9028 108.026 40.7484 107.884 40.6428L107.767 40.5576L107.82 40.3464C107.892 40.0661 108.131 39.2944 108.454 38.3278L108.716 37.5317L109.031 37.3896C109.439 37.2028 110.812 36.492 111.789 35.964C112.511 35.5741 112.564 35.5497 112.608 35.5944C112.637 35.6188 112.875 35.895 113.137 36.2077C115.418 38.9086 117.352 40.5616 119.464 41.6176C121.123 42.4462 122.678 42.9863 123.615 43.0554C124.459 43.1163 125.537 42.7223 126.166 42.1294C126.433 41.8775 126.558 41.6542 126.542 41.3861C126.53 41.1993 126.502 41.179 126.413 41.1099C126.203 40.9475 125.706 40.984 125.137 41.2115C124.979 41.2724 124.838 41.3252 124.818 41.3252C124.693 41.3333 123.582 40.9393 122.904 40.6388C121.87 40.188 121.168 39.8102 120.385 39.2904C119.787 38.8923 119.464 38.6487 118.879 38.145C117.91 37.3165 117.352 36.7601 115.996 35.2532C115.491 34.6927 115.063 34.2216 115.047 34.2094C115.023 34.1891 115.196 34.0713 115.628 33.8195C117.195 32.9016 119.214 31.6466 120.409 30.8506C121.499 30.1236 123.34 28.7873 124.386 27.9669C125.573 27.0368 126.865 25.8712 127.454 25.197C128.427 24.0841 128.803 23.1824 128.609 22.4229V22.4067ZM116.315 23.7023C118.208 22.7194 120.558 21.9031 122.529 21.5538C123.675 21.3507 124.975 21.3101 125.775 21.4563L126.057 21.5091L126.065 21.6431C126.078 21.8746 126.009 22.1386 125.851 22.4595C125.516 23.1297 125.088 23.6414 124.071 24.5999C122.856 25.7493 121.701 26.6672 119.468 28.2715C117.393 29.7621 114.191 31.7603 111.118 33.4946C110.573 33.8033 110.081 34.0795 110.024 34.1038L109.923 34.1566L110.081 33.7505C110.852 31.7725 112.112 28.8767 113.056 26.8947C113.287 26.3707 113.472 26.0011 113.63 25.7249C113.63 25.7249 113.892 25.266 114.118 25.0182C114.292 24.8274 114.99 24.4537 115.544 24.141C115.725 24.0354 115.907 23.9338 116.101 23.8282" fill="#D8D1C1"/>
</svg>
