<svg width="131" height="42" viewBox="0 0 131 42" fill="none" xmlns="http://www.w3.org/2000/svg">
<path d="M35.6 22.1491C35.9765 21.0417 38.7051 22.6724 37.7494 23.4192C35.3233 25.3307 33.7176 29.1729 33.0934 31.7258C32.8456 32.7438 33.309 33.0757 33.4827 33.0151C35.6515 33.2416 39.0816 29.6835 42.2446 26.1476C42.901 25.9785 42.959 26.9327 42.3733 27.089C40.1981 30.0409 36.1502 34.7511 32.6783 34.349C31.5006 34.2437 31.2045 33.7618 31.1241 32.8363C30.8506 29.7792 35.053 23.716 35.5968 22.1491H35.6ZM35.7673 19.6312C35.5324 19.4876 35.0079 19.0824 35.2814 18.7409C36.1148 17.7453 37.6754 17.4198 38.8885 17.0528C39.3036 16.9315 40.5682 17.5921 39.9472 17.908C38.9175 18.4186 38.1323 19.2962 37.0769 19.7493C36.62 19.9472 36.147 19.8323 35.7673 19.6312Z" fill="#2B2929"/>
<path d="M57.2417 27.2388C57.142 27.6823 52.0579 34.7412 48.4509 32.7212C45.0497 30.8193 49.5224 25.9144 51.1344 22.468C49.5867 23.8689 47.4887 26.1282 47.0704 26.575C45.0529 28.7322 43.1738 30.9724 41.2174 33.1744C40.7765 33.6786 39.2513 33.2414 39.3897 32.6063C40.3486 28.4323 42.9517 24.1944 45.8477 20.6458C46.3529 20.0235 47.7687 21.2713 47.3729 21.951C46.1952 23.9359 44.8277 25.8059 43.6564 27.7302C44.6893 26.5846 51.009 19.7044 53.02 20.2979C53.2646 20.3682 54.0433 20.7256 54.0626 21.3C54.1044 23.1381 51.1184 26.9101 50.0565 29.4949C49.4097 31.0618 50.079 32.4053 52.0612 31.1767C54.1688 29.8715 56.9811 26.7505 56.7494 27.0186C57.0937 26.6324 57.541 26.8335 57.2449 27.2324L57.2417 27.2388Z" fill="#2B2929"/>
<path d="M77.115 9.32987C74.6534 13.0508 61.3995 32.5298 66.2101 32.4915C68.7231 32.4627 71.4228 28.5918 72.1629 27.51C72.4814 27.0505 73.3856 26.9228 73.1121 27.3951C71.8315 29.6896 69.6498 33.1425 66.3742 33.6945C64.4113 34.0264 63.1693 33.0116 63.1532 31.5245C63.1307 30.3917 63.3978 29.2109 63.8193 28.0174C61.6344 30.7618 56.2544 35.989 54.5136 32.1404C52.9111 28.5535 58.806 21.5744 62.9537 20.5692C64.4854 20.199 66.0009 20.7256 66.6477 21.9542C66.6895 22.0435 66.7281 22.1297 66.7507 22.219C67.3266 21.2713 67.8962 20.3682 68.3949 19.5225C70.7342 15.5527 73.2859 11.6562 76.0885 7.88746C76.4843 7.35453 77.4786 8.76822 77.115 9.33306V9.32987ZM65.0678 23.1764C65.0678 22.4712 64.7814 22.1648 64.3695 22.0946C63.6166 21.9574 62.4453 22.6913 61.953 23.02C59.1632 24.8901 54.9287 30.8097 56.5826 31.5852C56.9011 31.7288 57.4996 31.6171 58.4553 31.1671C60.8075 30.0502 63.4557 26.4761 63.7067 26.1953C63.8708 25.9878 63.9319 25.9049 64.2537 25.4326C64.5755 24.9603 65.0678 23.7604 65.0678 23.1796V23.1764Z" fill="#2B2929"/>
<path d="M71.2913 32.8683C71.1175 33.047 70.8247 33.0661 70.4708 33.0278C69.9527 32.9704 69.3832 32.7534 69.0775 32.4981C68.8008 32.2651 68.8136 32.1215 69.1708 31.5056C69.5473 30.8546 70.3292 29.6707 71.0821 28.6016C71.2302 28.3942 71.3557 28.2091 71.3653 28.19C71.3782 28.1645 71.3235 28.1262 71.1562 28.04C70.8473 27.8804 70.6767 27.7592 70.4869 27.5645C70.3002 27.373 70.2133 27.2103 70.2133 27.0571C70.2133 26.9614 70.223 26.9422 70.3163 26.8752C70.4579 26.7731 70.7507 26.6965 71.8415 26.4859C72.3338 26.3902 72.7489 26.3072 72.7618 26.2944C72.7747 26.2849 73.0096 25.9881 73.2831 25.637C75.5612 22.7139 79.0042 18.8015 81.0153 16.8549C82.0482 15.8561 82.3893 15.6104 82.7529 15.6104C83.3964 15.6104 84.3682 16.1529 84.587 16.6315C84.6964 16.8709 84.6256 17.3846 84.3489 18.3516C84.1204 19.1526 83.5123 20.9715 82.7529 23.1288C81.5108 26.6582 80.6935 29.3675 80.227 31.4897C80.0983 32.0705 80.0918 32.1439 80.1433 32.2364C80.3525 32.6162 79.7411 32.7534 78.9785 32.4981C78.5473 32.3545 78.1129 32.08 77.952 31.8567C77.8491 31.7099 77.8362 31.5726 77.8909 31.2248C77.981 30.6823 78.4154 28.9367 78.7565 27.7496C78.8562 27.4081 78.9366 27.1209 78.9366 27.1146C78.9366 27.1082 78.8208 27.105 78.676 27.1146C77.9585 27.1529 76.4204 27.3507 75.1075 27.5709L74.6023 27.6571L74.316 28.0368C73.37 29.2973 72.1987 31.0014 71.6227 31.9524L71.3074 32.4757C71.4071 32.6864 71.3492 32.7981 71.2784 32.8714L71.2913 32.8683ZM81.5655 19.4717C81.5655 19.4717 80.922 20.1546 79.9985 21.1726C79.1941 22.0597 77.6302 23.8723 76.8644 24.8041C76.1276 25.7041 76.06 25.787 76.0761 25.803C76.0857 25.8094 76.2241 25.803 76.385 25.7806C77.1926 25.6913 78.0035 25.6658 78.3317 25.7232C78.5923 25.7679 78.8884 25.8477 79.0911 25.9338C79.252 25.9976 79.2842 26.0072 79.3003 25.9785C79.3099 25.9625 79.4129 25.6594 79.5255 25.3084C79.9084 24.1212 80.2044 23.2692 80.7611 21.7374C81.173 20.6141 81.5752 19.4813 81.5623 19.4749L81.5655 19.4717Z" fill="#2B2929"/>
<path d="M114.888 27.7112C115.808 29.1504 117.05 31.3651 115.239 32.699C113.643 33.9946 108.453 34.952 108.887 32.115C109.022 31.5948 109.537 31.4257 110.158 31.5087C111.213 31.6746 113.376 31.5502 113.862 30.6311C114.106 30.1524 113.591 29.5461 113.347 29.1281C111.291 26.0805 111.86 22.9499 116.78 22.3021C118.022 22.0724 120.349 21.4884 121.375 22.3021C122.482 23.0744 121.89 24.4115 120.374 24.4306C118.051 24.5551 112.587 25.0561 114.888 27.708V27.7112Z" fill="#2B2929"/>
<path d="M1.08375 13.6412C3.52924 9.25013 9.90036 7.0546 14.7752 5.31222C26.1982 1.22431 39.6709 -0.894631 51.982 0.844563C52.5193 0.921151 53.4654 1.9168 52.4904 1.89127C44.3431 1.6264 36.4853 1.81468 28.6566 3.20285C28.7016 3.31773 28.7016 3.42942 28.6405 3.53154C25.6416 8.31512 22.456 13.0093 19.4892 17.7897C20.0716 17.5887 20.638 17.3845 21.1785 17.1962C25.3262 15.7569 29.9662 14.3305 34.4775 14.3082C34.8411 14.3082 36.2086 15.1538 35.4685 15.3932C31.3209 16.7047 26.8836 17.26 22.7231 18.6099C21.0949 19.1524 19.4924 19.7459 17.9222 20.3905C13.9064 27.0793 10.457 33.9945 8.65188 41.5257C8.49099 42.1959 7.08162 41.3119 7.13954 40.795C7.72195 34.2467 10.7338 28.126 13.9644 22.2319C12.8446 22.7871 11.7248 23.3424 10.531 23.7221C10.1513 23.8498 9.04766 23.2562 9.4531 22.8765C11.0394 21.4117 13.279 20.2406 15.6086 19.2673C18.6365 13.8805 22.0119 8.40447 26.2754 3.67195C24.5861 4.02617 22.9 4.44102 21.2107 4.9197C16.4967 6.25681 11.6219 7.9226 7.46131 10.2936C3.64829 12.4764 -1.54514 18.8237 4.25966 21.9415C4.81311 22.2446 4.88712 23.0137 4.0859 22.6339C0.41768 20.866 -0.702093 16.8547 1.09019 13.638L1.08375 13.6412Z" fill="#2B2929"/>
<path d="M129.41 7.76636C127.254 7.58766 121.668 8.29291 118.908 8.61522C118.328 8.68223 116.678 9.00774 115.59 9.22474C115.378 9.28856 115.062 9.34919 114.58 9.42897C111.333 10.0098 106.822 10.6576 103.433 11.4043C101.339 11.5766 101.191 12.9712 102.816 13.7243C103.71 14.0945 104.505 13.6924 105.354 13.4626C107.867 12.7478 112.659 11.749 113.473 11.7458C109.998 15.6901 96.5732 34.3298 104.865 35.102C105.316 35.1435 105.419 34.8499 105.248 34.5148C101.847 28.726 113.17 16.5549 117.768 11.6979C118.888 10.5108 123.509 9.70022 126.949 9.63001C128.67 9.59491 130.434 10.1566 130.713 9.27899C130.858 8.88966 130.697 7.87167 129.417 7.76636H129.41Z" fill="#2B2929"/>
<path d="M102.246 17.391C102.114 16.8772 101.686 16.4145 100.949 15.9869C100.113 15.5018 99.2889 15.288 98.0243 15.2306C97.5159 15.2082 96.5474 15.272 96.0261 15.3646C94.9546 15.5529 93.6997 15.9198 92.4866 16.3953C92.3064 16.4655 92.1487 16.5294 92.1326 16.5357C92.1165 16.5421 92.0586 16.4911 92.0039 16.4209C91.9428 16.3443 91.8334 16.2517 91.7175 16.1783C91.4923 16.0379 91.444 16.0124 91.1834 15.9198C90.6203 15.7156 90.0475 15.6869 89.8513 15.856C89.7322 15.9581 89.4587 16.4464 88.6671 17.9718L88.2617 18.7504L87.9785 18.9993C87.3736 19.5259 87.0711 19.8865 86.8459 20.3428C86.6625 20.713 86.6045 20.946 86.6238 21.2427C86.6399 21.4757 86.6432 21.4916 86.7815 21.6959C86.8169 21.7533 86.8073 21.7884 86.582 22.2894C85.8098 23.9967 85.06 25.8221 84.5259 27.2996C84.4776 27.4368 84.4358 27.5453 84.4004 27.6411C84.188 28.2378 83.9692 28.8728 83.8502 29.2239C83.8469 29.2366 83.8437 29.2462 83.8373 29.259C83.3128 30.8099 83.0586 31.713 83.0586 32.0257C83.0586 32.2523 83.2002 32.4023 83.5573 32.5619C84.1591 32.8267 84.9667 32.9097 85.3528 32.7469C85.4783 32.6959 85.6135 32.5619 85.7711 32.3353C85.9159 32.131 85.9192 32.0385 85.9127 31.9843C85.9063 31.9236 85.8419 31.8024 85.7293 31.7194L85.636 31.6524L85.6778 31.4864C85.7358 31.2662 85.9256 30.6599 86.183 29.9004L86.3922 29.2749L86.6432 29.1632C86.9682 29.0165 88.0622 28.458 88.8409 28.0431C89.4169 27.7368 89.4587 27.7176 89.4941 27.7527C89.5166 27.7719 89.7064 27.9889 89.9156 28.2346C91.7336 30.3567 93.2749 31.6556 94.9578 32.4853C96.2803 33.1363 97.5191 33.5607 98.2656 33.6149C98.9382 33.6628 99.7973 33.3533 100.299 32.8874C100.512 32.6895 100.611 32.514 100.599 32.3034C100.589 32.1566 100.566 32.1406 100.496 32.0864C100.328 31.9587 99.9324 31.9874 99.4787 32.1661C99.3532 32.214 99.2406 32.2555 99.2245 32.2555C99.1248 32.2619 98.2399 31.9523 97.6993 31.7162C96.8756 31.362 96.3157 31.0652 95.6914 30.6567C95.2152 30.344 94.9578 30.1525 94.4912 29.7568C93.719 29.1058 93.2749 28.6686 92.1938 27.4847C91.7915 27.0443 91.4505 26.6741 91.4376 26.6646C91.4183 26.6486 91.5567 26.5561 91.901 26.3582C93.1494 25.637 94.7583 24.6509 95.7108 24.0254C96.5795 23.4542 98.0468 22.4043 98.8802 21.7597C99.8262 21.0289 100.856 20.1131 101.326 19.5833C102.101 18.7089 102.4 18.0005 102.246 17.4037V17.391ZM92.448 18.409C93.9571 17.6367 95.8298 16.9953 97.4001 16.7208C98.3139 16.5613 99.35 16.5294 99.9871 16.6442L100.212 16.6857L100.219 16.791C100.228 16.9729 100.174 17.1804 100.048 17.4325C99.7812 17.959 99.4401 18.3611 98.6292 19.1142C97.6607 20.0173 96.7404 20.7385 94.961 21.999C93.3071 23.1702 90.7554 24.7403 88.3067 26.1029C87.8723 26.3454 87.4798 26.5624 87.4347 26.5816L87.3543 26.6231L87.4798 26.3039C88.0944 24.7498 89.0983 22.4745 89.8513 20.9172C90.0347 20.5056 90.1827 20.2152 90.3082 19.9982C90.3082 19.9982 90.5173 19.6376 90.6975 19.4429C90.8359 19.2929 91.3925 18.9993 91.8334 18.7536C91.9782 18.6706 92.123 18.5909 92.2774 18.5079" fill="#2B2929"/>
</svg>
