<svg width="260" height="88" viewBox="0 0 260 88" fill="none" xmlns="http://www.w3.org/2000/svg">
<path d="M84.3618 42.2068C84.9301 40.529 89.0491 42.9998 87.6065 44.1312C83.9441 47.0274 81.5203 52.8489 80.5779 56.717C80.2039 58.2594 80.9034 58.7623 81.1657 58.6704C84.4395 59.0137 89.6175 53.6225 94.3922 48.2652C95.3831 48.009 95.4706 49.4547 94.5865 49.6916C91.303 54.1641 85.1924 61.3007 79.9513 60.6915C78.1735 60.5319 77.7267 59.8018 77.6052 58.3996C77.1924 53.7676 83.5361 44.5809 84.3569 42.2068H84.3618ZM84.6144 38.3919C84.2598 38.1743 83.4681 37.5603 83.8809 37.0429C85.139 35.5344 87.4948 35.0412 89.326 34.4851C89.9526 34.3014 91.8616 35.3023 90.9241 35.7809C89.3697 36.5546 88.1845 37.8842 86.5913 38.5708C85.9016 38.8706 85.1876 38.6965 84.6144 38.3919Z" fill="#2B2929"/>
<path d="M117.032 49.9189C116.882 50.591 109.207 61.2863 103.762 58.2257C98.6277 55.3439 105.379 47.9124 107.813 42.6904C105.477 44.8131 102.31 48.2363 101.678 48.9132C98.6326 52.1818 95.7959 55.576 92.8426 58.9123C92.1772 59.6762 89.8748 59.0138 90.0837 58.0516C91.5311 51.7273 95.4607 45.3062 99.8324 39.9296C100.595 38.9867 102.732 40.8773 102.135 41.9071C100.357 44.9146 98.2926 47.748 96.5245 50.6635C98.0837 48.9277 107.624 38.5032 110.659 39.4025C111.029 39.5089 112.204 40.0505 112.233 40.9208C112.296 43.7058 107.789 49.4209 106.186 53.3374C105.209 55.7114 106.22 57.747 109.212 55.8855C112.393 53.9079 116.639 49.1792 116.289 49.5853C116.809 49.0003 117.484 49.3049 117.037 49.9093L117.032 49.9189Z" fill="#2B2929"/>
<path d="M147.033 22.7841C143.317 28.4218 123.309 57.9354 130.571 57.8774C134.365 57.8339 138.44 51.9689 139.557 50.3298C140.038 49.6335 141.403 49.4401 140.99 50.1557C139.057 53.6321 135.764 58.8638 130.819 59.7002C127.856 60.2031 125.981 58.6655 125.957 56.4123C125.923 54.6959 126.326 52.9069 126.962 51.0985C123.664 55.2568 115.542 63.1767 112.915 57.3455C110.496 51.9108 119.394 41.3364 125.655 39.8134C127.967 39.2525 130.255 40.0503 131.232 41.9118C131.295 42.0472 131.353 42.1777 131.387 42.3131C132.257 40.8771 133.116 39.5088 133.869 38.2274C137.4 32.2126 141.252 26.3089 145.483 20.5986C146.081 19.7911 147.581 21.9331 147.033 22.7889V22.7841ZM128.847 43.7637C128.847 42.6951 128.414 42.2309 127.793 42.1246C126.656 41.9166 124.888 43.0287 124.145 43.5267C119.933 46.3601 113.541 55.3293 116.038 56.5042C116.519 56.7218 117.422 56.5526 118.865 55.8708C122.416 54.1785 126.413 48.7632 126.792 48.3377C127.04 48.0234 127.132 47.8977 127.618 47.1821C128.103 46.4665 128.847 44.6485 128.847 43.7685V43.7637Z" fill="#2B2929"/>
<path d="M138.238 58.4472C137.976 58.7179 137.534 58.747 137 58.6889C136.218 58.6019 135.358 58.2731 134.896 57.8863C134.479 57.5333 134.498 57.3158 135.037 56.3826C135.606 55.3962 136.786 53.6024 137.923 51.9826C138.146 51.6683 138.335 51.3879 138.35 51.3589C138.369 51.3202 138.287 51.2622 138.034 51.1316C137.568 50.8899 137.31 50.7061 137.024 50.4112C136.742 50.1211 136.611 49.8745 136.611 49.6424C136.611 49.4974 136.626 49.4683 136.766 49.3668C136.98 49.2121 137.422 49.096 139.069 48.7769C139.812 48.6319 140.439 48.5062 140.458 48.4868C140.477 48.4723 140.832 48.0226 141.245 47.4908C144.684 43.0618 149.881 37.134 152.917 34.1845C154.476 32.6711 154.991 32.2988 155.54 32.2988C156.512 32.2988 157.979 33.1208 158.309 33.8461C158.474 34.2087 158.367 34.9872 157.949 36.4522C157.605 37.6658 156.686 40.4218 155.54 43.6904C153.665 49.038 152.431 53.143 151.727 56.3584C151.533 57.2384 151.523 57.3496 151.601 57.4898C151.917 58.0652 150.994 58.2731 149.842 57.8863C149.192 57.6687 148.536 57.2529 148.293 56.9144C148.138 56.692 148.118 56.4841 148.201 55.9571C148.337 55.1351 148.992 52.4903 149.507 50.6916C149.658 50.1743 149.779 49.7391 149.779 49.7294C149.779 49.7198 149.604 49.7149 149.386 49.7294C148.303 49.7875 145.981 50.0872 143.999 50.4209L143.236 50.5514L142.804 51.1268C141.376 53.0367 139.608 55.6186 138.739 57.0595L138.263 57.8524C138.413 58.1716 138.326 58.3408 138.219 58.452L138.238 58.4472ZM153.748 38.1493C153.748 38.1493 152.776 39.184 151.382 40.7264C150.168 42.0706 147.807 44.817 146.651 46.2288C145.539 47.5923 145.437 47.718 145.461 47.7422C145.476 47.7519 145.685 47.7422 145.927 47.7084C147.147 47.573 148.371 47.5343 148.866 47.6213C149.26 47.689 149.706 47.8099 150.012 47.9405C150.255 48.0372 150.304 48.0517 150.328 48.0081C150.343 47.984 150.498 47.5246 150.668 46.9928C151.246 45.1941 151.693 43.9031 152.533 41.5823C153.155 39.8803 153.762 38.1638 153.743 38.1542L153.748 38.1493Z" fill="#2B2929"/>
<path d="M204.051 50.6341C205.44 52.8147 207.315 56.1703 204.58 58.1914C202.171 60.1544 194.336 61.605 194.992 57.3065C195.196 56.5184 195.973 56.2621 196.911 56.3878C198.504 56.6393 201.768 56.4507 202.501 55.0582C202.871 54.3329 202.093 53.4143 201.724 52.7809C198.62 48.1633 199.48 43.4201 206.907 42.4385C208.782 42.0904 212.294 41.2056 213.843 42.4385C215.514 43.6086 214.621 45.6345 212.333 45.6636C208.826 45.8521 200.578 46.6112 204.051 50.6292V50.6341Z" fill="#2B2929"/>
<path d="M32.2556 29.3156C35.9472 22.6625 45.5648 19.3359 52.9237 16.6959C70.1673 10.5021 90.505 7.2916 109.089 9.92675C109.9 10.0428 111.329 11.5513 109.857 11.5127C97.5579 11.1114 85.6963 11.3966 73.8783 13.4999C73.9463 13.674 73.9463 13.8432 73.854 13.9979C69.327 21.2458 64.5182 28.3582 60.0397 35.6012C60.9189 35.2966 61.7738 34.9872 62.5898 34.7019C68.8509 32.5213 75.8553 30.36 82.6653 30.3261C83.2141 30.3261 85.2785 31.6074 84.1613 31.9701C77.9002 33.9573 71.2019 34.7986 64.9213 36.8439C62.4635 37.6658 60.0446 38.5652 57.6742 39.5419C51.6122 49.6763 46.4051 60.154 43.6801 71.5649C43.4373 72.5803 41.3098 71.2409 41.3972 70.4576C42.2764 60.536 46.8229 51.2622 51.6996 42.3317C50.0093 43.173 48.3189 44.0144 46.5168 44.5897C45.9437 44.7831 44.2776 43.8838 44.8896 43.3084C47.2843 41.0891 50.665 39.3146 54.1817 37.8399C58.7525 29.6782 63.8479 21.3812 70.2839 14.2107C67.7338 14.7474 65.1885 15.3759 62.6384 16.1012C55.5224 18.1271 48.1635 20.651 41.8829 24.2435C36.127 27.5508 28.2872 37.1678 37.0499 41.8917C37.8853 42.3511 37.997 43.5163 36.7876 42.941C31.2502 40.2623 29.5598 34.1846 32.2654 29.3107L32.2556 29.3156Z" fill="#2B2929"/>
<path d="M225.972 20.4144C222.717 20.1436 214.285 21.2122 210.117 21.7005C209.243 21.8021 206.751 22.2952 205.109 22.624C204.789 22.7207 204.313 22.8126 203.584 22.9335C198.683 23.8135 191.873 24.795 186.758 25.9264C183.596 26.1875 183.373 28.3005 185.826 29.4416C187.176 30.0024 188.376 29.3932 189.658 29.0451C193.452 27.962 200.684 26.4486 201.913 26.4438C196.667 32.42 176.402 60.6619 188.92 61.832C189.6 61.8949 189.755 61.4501 189.498 60.9424C184.364 52.1715 201.457 33.7303 208.398 26.3713C210.088 24.5726 217.063 23.3445 222.256 23.2381C224.855 23.1849 227.516 24.0359 227.939 22.7062C228.158 22.1163 227.915 20.5739 225.982 20.4144H225.972Z" fill="#2B2929"/>
<path d="M184.964 34.997C184.765 34.2185 184.119 33.5174 183.007 32.8695C181.744 32.1346 180.5 31.8106 178.592 31.7236C177.824 31.6897 176.362 31.7864 175.575 31.9267C173.958 32.2119 172.063 32.768 170.232 33.4884C169.96 33.5948 169.722 33.6915 169.698 33.7011C169.673 33.7108 169.586 33.6335 169.503 33.5271C169.411 33.411 169.246 33.2708 169.071 33.1596C168.731 32.9469 168.658 32.9082 168.265 32.768C167.415 32.4585 166.55 32.415 166.254 32.6713C166.074 32.826 165.661 33.5658 164.466 35.8769L163.854 37.0567L163.427 37.4339C162.514 38.2317 162.057 38.778 161.717 39.4694C161.44 40.0303 161.353 40.3833 161.382 40.8329C161.406 41.1859 161.411 41.2101 161.62 41.5195C161.673 41.6066 161.659 41.6598 161.319 42.4189C160.153 45.0057 159.021 47.7714 158.215 50.01C158.142 50.2179 158.079 50.3823 158.026 50.5274C157.705 51.4315 157.375 52.3937 157.195 52.9256C157.19 52.9449 157.185 52.9594 157.175 52.9788C156.384 55.3286 156 56.697 156 57.1708C156 57.5141 156.214 57.7414 156.753 57.9831C157.661 58.3844 158.88 58.5102 159.463 58.2636C159.653 58.1862 159.857 57.9831 160.095 57.6398C160.313 57.3304 160.318 57.1902 160.308 57.108C160.299 57.0161 160.202 56.8324 160.032 56.7067L159.891 56.6051L159.954 56.3537C160.041 56.0201 160.328 55.1014 160.716 53.9506L161.032 53.003L161.411 52.8337C161.902 52.6113 163.553 51.7652 164.729 51.1366C165.598 50.6724 165.661 50.6434 165.715 50.6966C165.749 50.7256 166.035 51.0544 166.351 51.4267C169.095 54.6421 171.422 56.61 173.962 57.8671C175.959 58.8534 177.829 59.4965 178.956 59.5787C179.971 59.6512 181.268 59.1822 182.026 58.4763C182.346 58.1765 182.497 57.9106 182.477 57.5915C182.463 57.3691 182.429 57.3449 182.322 57.2627C182.069 57.0693 181.472 57.1128 180.787 57.3836C180.598 57.4561 180.428 57.519 180.403 57.519C180.253 57.5286 178.917 57.0596 178.101 56.7018C176.857 56.1651 176.012 55.7155 175.07 55.0966C174.351 54.6227 173.962 54.3326 173.258 53.7331C172.092 52.7467 171.422 52.0843 169.79 50.2905C169.183 49.6232 168.668 49.0623 168.649 49.0478C168.619 49.0237 168.828 48.8834 169.348 48.5837C171.233 47.4909 173.661 45.9969 175.099 45.0492C176.411 44.1837 178.626 42.5929 179.884 41.6162C181.312 40.509 182.866 39.1213 183.575 38.3187C184.746 36.9939 185.198 35.9205 184.964 35.0163V34.997ZM170.174 36.5394C172.452 35.3693 175.279 34.3974 177.649 33.9816C179.029 33.7398 180.593 33.6915 181.555 33.8655L181.895 33.9284L181.904 34.088C181.919 34.3636 181.836 34.6778 181.647 35.0598C181.244 35.8576 180.729 36.4668 179.505 37.6079C178.043 38.9763 176.653 40.069 173.967 41.9789C171.471 43.7534 167.619 46.1322 163.922 48.1968C163.267 48.5643 162.674 48.8931 162.606 48.9221L162.485 48.985L162.674 48.5015C163.602 46.1467 165.117 42.6993 166.254 40.3398C166.531 39.716 166.754 39.276 166.944 38.9473C166.944 38.9473 167.259 38.4009 167.531 38.1059C167.74 37.8787 168.581 37.4339 169.246 37.0616C169.465 36.9358 169.683 36.815 169.916 36.6893" fill="#2B2929"/>
<path d="M126.996 78.471V70.4648H127.893V71.218C128.104 70.9262 128.342 70.7023 128.607 70.5531C128.872 70.4038 129.191 70.3359 129.572 70.3359C130.068 70.3359 130.502 70.4648 130.883 70.7159C131.264 70.9669 131.549 71.3265 131.739 71.7947C131.929 72.2561 132.031 72.7649 132.031 73.3213C132.031 73.9116 131.923 74.4476 131.712 74.9225C131.501 75.3975 131.189 75.7571 130.781 76.0149C130.373 76.2659 129.945 76.3948 129.504 76.3948C129.177 76.3948 128.878 76.327 128.62 76.1845C128.362 76.0488 128.145 75.8724 127.981 75.6621V78.4778H126.996V78.471ZM127.886 73.3891C127.886 74.1355 128.036 74.6851 128.342 75.0446C128.647 75.4042 129.007 75.5807 129.442 75.5807C129.877 75.5807 130.251 75.3975 130.564 75.0243C130.876 74.6511 131.032 74.0812 131.032 73.3077C131.032 72.5342 130.883 72.0186 130.577 71.6522C130.271 71.2858 129.911 71.1026 129.49 71.1026C129.069 71.1026 128.702 71.2994 128.382 71.6861C128.063 72.0797 127.9 72.6428 127.9 73.3891H127.886Z" fill="#4D4D4D"/>
<path d="M133.199 76.2533V70.4658H134.083V71.341C134.307 70.9339 134.518 70.6625 134.708 70.5268C134.898 70.3979 135.109 70.3301 135.34 70.3301C135.673 70.3301 136.006 70.4386 136.352 70.649L136.012 71.5581C135.775 71.4157 135.53 71.3478 135.292 71.3478C135.075 71.3478 134.884 71.4089 134.715 71.5446C134.545 71.6735 134.422 71.8499 134.348 72.0806C134.239 72.4266 134.185 72.8133 134.185 73.2272V76.2601H133.199V76.2533Z" fill="#4D4D4D"/>
<path d="M140.907 74.3874L141.919 74.5096C141.756 75.0998 141.464 75.5612 141.029 75.8869C140.594 76.2126 140.044 76.3754 139.371 76.3754C138.522 76.3754 137.849 76.1176 137.353 75.5952C136.857 75.0727 136.605 74.3399 136.605 73.4036C136.605 72.4673 136.857 71.6735 137.36 71.1375C137.863 70.6015 138.515 70.3301 139.317 70.3301C140.119 70.3301 140.723 70.5947 141.219 71.1171C141.709 71.6463 141.953 72.3859 141.953 73.3426C141.953 73.4036 141.953 73.485 141.953 73.6072H137.632C137.666 74.245 137.849 74.7335 138.175 75.0659C138.501 75.4052 138.902 75.5748 139.385 75.5748C139.745 75.5748 140.051 75.4798 140.309 75.2898C140.56 75.0999 140.764 74.8013 140.914 74.3874H140.907ZM137.679 72.7998H140.914C140.873 72.3113 140.744 71.9449 140.54 71.7006C140.227 71.3207 139.82 71.1307 139.324 71.1307C138.875 71.1307 138.495 71.28 138.182 71.5853C137.869 71.8906 137.706 72.2909 137.672 72.793L137.679 72.7998Z" fill="#4D4D4D"/>
<path d="M142.766 74.5231L143.738 74.3671C143.793 74.7538 143.942 75.0524 144.193 75.2627C144.445 75.473 144.791 75.5748 145.24 75.5748C145.688 75.5748 146.028 75.4798 146.246 75.2966C146.463 75.1134 146.572 74.8963 146.572 74.6521C146.572 74.4282 146.477 74.2585 146.28 74.1296C146.144 74.0414 145.811 73.9328 145.274 73.7971C144.554 73.614 144.051 73.4579 143.772 73.3222C143.494 73.1865 143.283 73.0033 143.14 72.7726C142.998 72.5352 142.923 72.2773 142.923 71.9992C142.923 71.7413 142.984 71.5039 143.099 71.28C143.222 71.0628 143.378 70.8797 143.582 70.7304C143.738 70.615 143.942 70.5201 144.207 70.4454C144.472 70.3708 144.757 70.3301 145.056 70.3301C145.512 70.3301 145.913 70.3979 146.252 70.5268C146.599 70.6558 146.85 70.8322 147.014 71.0561C147.177 71.28 147.292 71.5785 147.353 71.9517L146.388 72.0806C146.348 71.782 146.218 71.5514 146.008 71.3817C145.797 71.2121 145.505 71.1307 145.118 71.1307C144.669 71.1307 144.343 71.2053 144.153 71.3546C143.962 71.5039 143.861 71.6803 143.861 71.877C143.861 72.0059 143.901 72.1213 143.983 72.2231C144.064 72.3316 144.187 72.413 144.357 72.4877C144.452 72.5216 144.744 72.6098 145.226 72.7387C145.919 72.9219 146.409 73.078 146.681 73.1933C146.952 73.3154 147.17 73.4851 147.326 73.709C147.482 73.9329 147.557 74.211 147.557 74.5503C147.557 74.8895 147.462 75.1881 147.272 75.473C147.081 75.758 146.803 75.9819 146.443 76.1447C146.083 76.3076 145.675 76.3822 145.22 76.3822C144.465 76.3822 143.894 76.2261 143.5 75.914C143.106 75.6019 142.855 75.1406 142.746 74.5231H142.766Z" fill="#4D4D4D"/>
<path d="M152.719 74.3874L153.732 74.5096C153.569 75.0998 153.277 75.5612 152.842 75.8869C152.407 76.2126 151.856 76.3754 151.184 76.3754C150.334 76.3754 149.662 76.1176 149.165 75.5952C148.669 75.0727 148.418 74.3399 148.418 73.4036C148.418 72.4673 148.669 71.6735 149.172 71.1375C149.675 70.6015 150.327 70.3301 151.129 70.3301C151.931 70.3301 152.536 70.5947 153.032 71.1171C153.521 71.6463 153.766 72.3859 153.766 73.3426C153.766 73.4036 153.766 73.485 153.766 73.6072H149.444C149.478 74.245 149.662 74.7335 149.988 75.0659C150.314 75.4052 150.715 75.5748 151.197 75.5748C151.557 75.5748 151.863 75.4798 152.121 75.2898C152.373 75.0999 152.577 74.8013 152.726 74.3874H152.719ZM149.492 72.7998H152.726C152.685 72.3113 152.556 71.9449 152.352 71.7006C152.04 71.3207 151.632 71.1307 151.136 71.1307C150.688 71.1307 150.307 71.28 149.994 71.5853C149.682 71.8906 149.519 72.2909 149.485 72.793L149.492 72.7998Z" fill="#4D4D4D"/>
<path d="M154.964 76.2533V70.4658H155.847V71.2867C156.275 70.649 156.887 70.3301 157.696 70.3301C158.042 70.3301 158.368 70.3911 158.66 70.5201C158.953 70.6422 159.17 70.8118 159.32 71.0154C159.462 71.2189 159.564 71.4632 159.625 71.7413C159.659 71.9245 159.68 72.2434 159.68 72.698V76.2601H158.694V72.7387C158.694 72.3384 158.654 72.0399 158.579 71.8431C158.504 71.6463 158.368 71.4835 158.171 71.3682C157.974 71.246 157.75 71.1918 157.485 71.1918C157.064 71.1918 156.703 71.3207 156.398 71.5921C156.092 71.8635 155.942 72.3588 155.942 73.1051V76.2669H154.957L154.964 76.2533Z" fill="#4D4D4D"/>
<path d="M163.333 75.3697L163.475 76.2382C163.197 76.2924 162.952 76.3264 162.735 76.3264C162.374 76.3264 162.103 76.2721 161.906 76.1567C161.708 76.0414 161.573 75.8989 161.491 75.7089C161.41 75.519 161.369 75.139 161.369 74.5487V71.2173H160.648V70.4574H161.369V69.0258L162.347 68.4355V70.4574H163.339V71.2173H162.347V74.603C162.347 74.8812 162.368 75.0644 162.402 75.1458C162.436 75.2272 162.49 75.2883 162.571 75.3358C162.646 75.3833 162.762 75.4036 162.904 75.4036C163.013 75.4036 163.156 75.3901 163.339 75.3629L163.333 75.3697Z" fill="#4D4D4D"/>
<path d="M168.266 74.3874L169.279 74.5096C169.116 75.0998 168.823 75.5612 168.389 75.8869C167.954 76.2126 167.403 76.3754 166.731 76.3754C165.881 76.3754 165.208 76.1176 164.712 75.5952C164.216 75.0727 163.965 74.3399 163.965 73.4036C163.965 72.4673 164.216 71.6735 164.719 71.1375C165.222 70.6015 165.874 70.3301 166.676 70.3301C167.478 70.3301 168.083 70.5947 168.579 71.1171C169.068 71.6463 169.313 72.3859 169.313 73.3426C169.313 73.4036 169.313 73.485 169.313 73.6072H164.991C165.025 74.245 165.208 74.7335 165.535 75.0659C165.861 75.4052 166.262 75.5748 166.744 75.5748C167.104 75.5748 167.41 75.4798 167.668 75.2898C167.92 75.0999 168.124 74.8013 168.273 74.3874H168.266ZM165.039 72.7998H168.273C168.232 72.3113 168.103 71.9449 167.899 71.7006C167.587 71.3207 167.179 71.1307 166.683 71.1307C166.234 71.1307 165.854 71.28 165.541 71.5853C165.229 71.8906 165.066 72.2909 165.032 72.793L165.039 72.7998Z" fill="#4D4D4D"/>
<path d="M174.277 76.2524V75.5196C173.91 76.0963 173.367 76.3813 172.653 76.3813C172.191 76.3813 171.763 76.2524 171.375 76.0013C170.988 75.7503 170.689 75.3907 170.472 74.9361C170.261 74.4815 170.152 73.9523 170.152 73.362C170.152 72.7717 170.247 72.2629 170.445 71.7879C170.642 71.313 170.927 70.9534 171.314 70.7091C171.702 70.4581 172.13 70.3359 172.605 70.3359C172.952 70.3359 173.265 70.4106 173.536 70.5531C173.808 70.6955 174.032 70.8923 174.202 71.1298V68.2598H175.181V76.2524H174.27H174.277ZM171.172 73.362C171.172 74.1015 171.328 74.6579 171.641 75.0243C171.953 75.3907 172.32 75.5739 172.748 75.5739C173.176 75.5739 173.543 75.3975 173.842 75.0447C174.141 74.6918 174.291 74.1558 174.291 73.4366C174.291 72.6428 174.141 72.0593 173.829 71.6929C173.523 71.3198 173.149 71.1366 172.701 71.1366C172.252 71.1366 171.899 71.313 171.607 71.6726C171.314 72.0322 171.165 72.5885 171.165 73.3552L171.172 73.362Z" fill="#4D4D4D"/>
<path d="M180.75 76.2524H179.84V68.2598H180.825V71.1094C181.24 70.587 181.77 70.3292 182.415 70.3292C182.775 70.3292 183.108 70.397 183.428 70.5463C183.747 70.6955 184.005 70.8923 184.216 71.1501C184.42 71.408 184.583 71.7268 184.698 72.0932C184.814 72.4596 184.875 72.8531 184.875 73.267C184.875 74.2576 184.63 75.0243 184.141 75.5671C183.652 76.1099 183.061 76.3813 182.374 76.3813C181.688 76.3813 181.151 76.0963 180.764 75.5264V76.2524H180.75ZM180.737 73.3145C180.737 74.0066 180.832 74.5086 181.022 74.8208C181.335 75.3228 181.749 75.5807 182.279 75.5807C182.707 75.5807 183.081 75.3975 183.394 75.0243C183.706 74.6511 183.863 74.0948 183.863 73.3552C183.863 72.6157 183.713 72.0389 183.414 71.6793C183.115 71.3197 182.748 71.1366 182.327 71.1366C181.906 71.1366 181.525 71.3198 181.212 71.6929C180.9 72.0661 180.744 72.6021 180.744 73.3077L180.737 73.3145Z" fill="#4D4D4D"/>
<path d="M186.013 78.4768L185.904 77.554C186.121 77.6151 186.305 77.6422 186.468 77.6422C186.685 77.6422 186.862 77.6083 186.991 77.5337C187.12 77.459 187.229 77.3573 187.31 77.2283C187.372 77.1334 187.474 76.8891 187.609 76.4956C187.63 76.4413 187.657 76.3599 187.698 76.2581L185.496 70.457H186.556L187.766 73.8088C187.922 74.2362 188.065 74.684 188.187 75.1522C188.303 74.7044 188.432 74.2634 188.588 73.8359L189.825 70.4638H190.81L188.602 76.3531C188.364 76.9909 188.18 77.4251 188.051 77.6694C187.874 77.995 187.677 78.2325 187.453 78.3818C187.229 78.531 186.957 78.6057 186.644 78.6057C186.454 78.6057 186.244 78.565 186.013 78.4835V78.4768Z" fill="#4D4D4D"/>
<path d="M206.971 77.1338C207.236 77.7783 207.501 78.4229 207.773 79.081H207.691C206.332 79.081 204.973 79.081 203.614 79.081C203.546 79.081 203.519 79.0607 203.499 78.9996C202.785 76.781 202.065 74.5623 201.351 72.3504C201.338 72.3029 201.331 72.269 201.263 72.269C201.202 72.269 201.195 72.3097 201.181 72.3504C200.502 74.4537 199.822 76.5503 199.143 78.6536C199.102 78.7825 199.061 78.9046 199.02 79.0335C199.007 79.0675 198.993 79.0878 198.953 79.0878C197.573 79.0878 196.187 79.0878 194.807 79.0878C194.801 79.0878 194.787 79.0878 194.773 79.0878C194.78 79.0607 194.787 79.0403 194.794 79.02C196.302 75.3426 197.818 71.6719 199.326 67.9945C199.353 67.9267 199.387 67.9063 199.462 67.9063C200.665 67.9063 201.868 67.9063 203.07 67.9063C203.145 67.9063 203.179 67.9267 203.206 67.9945C204.015 69.9689 204.83 71.9433 205.646 73.9177C205.659 73.9517 205.659 73.9856 205.714 73.972C205.761 73.9585 205.761 73.9313 205.761 73.8906C205.761 71.9298 205.755 69.9689 205.748 68.0013C205.748 67.9335 205.784 67.8995 205.857 67.8995C207.052 67.8995 208.248 67.8995 209.438 67.8995C209.506 67.8995 209.54 67.9335 209.54 68.0013C209.54 69.9961 209.54 71.984 209.54 73.9788C209.54 74.352 209.58 74.7251 209.723 75.078C209.893 75.5122 210.226 75.7497 210.681 75.8243C210.973 75.8718 211.266 75.8718 211.551 75.8039C212.02 75.7022 212.305 75.4036 212.455 74.9558C212.536 74.7048 212.584 74.447 212.591 74.1823C212.604 73.7888 212.604 73.3953 212.604 73.0018C212.604 71.3327 212.604 69.6568 212.604 67.9878C212.604 67.9244 212.636 67.8928 212.699 67.8928C213.916 67.8928 215.132 67.8928 216.348 67.8928C216.412 67.8928 216.444 67.9222 216.444 67.981C216.444 68.9919 216.444 70.0029 216.444 71.0138C216.444 71.0817 216.471 71.1088 216.525 71.0884C216.545 71.0817 216.559 71.0477 216.566 71.0206C216.675 70.6949 216.81 70.376 216.98 70.0775C217.47 69.209 218.176 68.5645 219.067 68.1234C219.644 67.8385 220.249 67.6621 220.881 67.5603C221.418 67.4721 221.954 67.4517 222.498 67.4721C223.49 67.5128 224.442 67.7231 225.325 68.1981C226.514 68.8359 227.296 69.8061 227.703 71.0817C227.819 71.448 227.894 71.8212 227.941 72.2012C227.995 72.649 228.009 73.09 227.989 73.5378C227.948 74.3927 227.778 75.2204 227.398 75.9939C226.895 77.0116 226.113 77.7512 225.087 78.2397C224.537 78.5043 223.952 78.6672 223.354 78.7621C222.851 78.8436 222.342 78.8707 221.832 78.8504C220.915 78.8164 220.025 78.6468 219.189 78.2533C217.83 77.6155 216.946 76.5638 216.518 75.1322C216.491 75.0305 216.464 74.9287 216.437 74.8201C216.43 74.7862 216.416 74.7659 216.369 74.7659C216.321 74.7659 216.321 74.793 216.321 74.8269C216.233 75.2951 216.097 75.7564 215.866 76.1771C215.479 76.8963 214.881 77.378 214.126 77.6766C213.698 77.8462 213.257 77.948 212.808 78.0158C212.394 78.0769 211.979 78.1176 211.565 78.1176C211.17 78.1176 210.783 78.1312 210.389 78.1176C209.703 78.0904 209.023 78.0022 208.364 77.7919C207.895 77.6426 207.46 77.4323 207.08 77.1202C207.032 77.0795 207.032 77.0795 206.964 77.127L206.971 77.1338ZM220.174 73.185C220.174 73.531 220.188 73.8974 220.242 74.257C220.296 74.6437 220.378 75.0169 220.534 75.3765C220.663 75.6818 220.84 75.96 221.105 76.1703C221.445 76.4485 221.846 76.5367 222.274 76.5096C222.716 76.4824 223.089 76.306 223.375 75.9668C223.613 75.6954 223.755 75.3697 223.864 75.0237C224.034 74.4605 224.088 73.877 224.095 73.2867C224.102 72.8661 224.081 72.4454 224.02 72.0315C223.966 71.6516 223.884 71.2852 223.728 70.9324C223.592 70.6135 223.402 70.3285 223.123 70.1182C222.777 69.8604 222.383 69.779 221.961 69.8197C221.452 69.8604 221.064 70.1046 220.772 70.5185C220.555 70.8374 220.426 71.1902 220.337 71.5634C220.215 72.0926 220.174 72.6286 220.181 73.185H220.174Z" fill="#4D4D4D"/>
</svg>
